name p5_grf_mean_speed_1.2
datacolumns 13
datarows 28
range 0.0000000000 0.2700000000
endheader
time	grf_x_l_mean	grf_x_l_var	grf_y_l_mean	grf_y_l_var	grf_z_l_mean	grf_z_l_var	grf_x_r_mean	grf_x_r_var	grf_y_r_mean	grf_y_r_var	grf_z_r_mean	grf_z_r_var
0.0000000000	138.3529694643	1.0000000000	724.9267265735	1.0000000000	0.0000000000	0.0000000000	15.2962129446	1.0000000000	11.1513491953	1.0000000000	0.0000000000	0.0000000000
0.0100000000	148.2719349653	1.0000000000	709.9671067383	1.0000000000	0.0000000000	0.0000000000	22.8004317485	1.0000000000	41.0781764428	1.0000000000	0.0000000000	0.0000000000
0.0200000000	156.7564256281	1.0000000000	683.4353402863	1.0000000000	0.0000000000	0.0000000000	27.0564135560	1.0000000000	88.9434646332	1.0000000000	0.0000000000	0.0000000000
0.0300000000	161.9340055927	1.0000000000	642.7885967780	1.0000000000	0.0000000000	0.0000000000	21.8475411096	1.0000000000	155.1204898743	1.0000000000	0.0000000000	0.0000000000
0.0400000000	161.2263743639	1.0000000000	586.4707913805	1.0000000000	0.0000000000	0.0000000000	5.1860232960	1.0000000000	237.7648715122	1.0000000000	0.0000000000	0.0000000000
0.0500000000	153.7556951820	1.0000000000	515.1850534881	1.0000000000	0.0000000000	0.0000000000	-18.9107258464	1.0000000000	331.4492674559	1.0000000000	0.0000000000	0.0000000000
0.0600000000	138.8048821588	1.0000000000	431.9876476173	1.0000000000	0.0000000000	0.0000000000	-46.2670345692	1.0000000000	426.0806076328	1.0000000000	0.0000000000	0.0000000000
0.0700000000	115.2005301454	1.0000000000	342.4979754204	1.0000000000	0.0000000000	0.0000000000	-72.5093586003	1.0000000000	510.5391498934	1.0000000000	0.0000000000	0.0000000000
0.0800000000	86.1307030507	1.0000000000	254.8919618466	1.0000000000	0.0000000000	0.0000000000	-92.5690798738	1.0000000000	579.0922927693	1.0000000000	0.0000000000	0.0000000000
0.0900000000	57.0786876601	1.0000000000	177.7411599691	1.0000000000	0.0000000000	0.0000000000	-104.7848641357	1.0000000000	633.8322463386	1.0000000000	0.0000000000	0.0000000000
0.1000000000	31.5749986307	1.0000000000	116.3898832235	1.0000000000	0.0000000000	0.0000000000	-111.1257927115	1.0000000000	679.5090394391	1.0000000000	0.0000000000	0.0000000000
0.1100000000	12.9296145801	1.0000000000	71.4042707754	1.0000000000	0.0000000000	0.0000000000	-112.8269897288	1.0000000000	717.7047930966	1.0000000000	0.0000000000	0.0000000000
0.1200000000	2.9312943367	1.0000000000	40.6070520792	1.0000000000	0.0000000000	0.0000000000	-109.7303159903	1.0000000000	747.4275344896	1.0000000000	0.0000000000	0.0000000000
0.1300000000	-1.2902325910	1.0000000000	21.0336029921	1.0000000000	0.0000000000	0.0000000000	-103.8788586437	1.0000000000	768.0231351328	1.0000000000	0.0000000000	0.0000000000
0.1400000000	-2.8853156200	1.0000000000	9.3090829935	1.0000000000	0.0000000000	0.0000000000	-98.2397008962	1.0000000000	779.4201442127	1.0000000000	0.0000000000	0.0000000000
0.1500000000	-2.3042239984	1.0000000000	2.5280113574	1.0000000000	0.0000000000	0.0000000000	-92.3857310953	1.0000000000	781.7033413246	1.0000000000	0.0000000000	0.0000000000
0.1600000000	0.0000000000	1.0000000000	0.0000000000	1.0000000000	0.0000000000	0.0000000000	-86.1388854938	1.0000000000	776.0451909699	1.0000000000	0.0000000000	0.0000000000
0.1700000000	0.0000000000	1.0000000000	0.0000000000	1.0000000000	0.0000000000	0.0000000000	-80.7885532571	1.0000000000	764.7370726342	1.0000000000	0.0000000000	0.0000000000
0.1800000000	0.0000000000	1.0000000000	0.0000000000	1.0000000000	0.0000000000	0.0000000000	-75.7148745870	1.0000000000	749.5894941246	1.0000000000	0.0000000000	0.0000000000
0.1900000000	0.0000000000	1.0000000000	0.0000000000	1.0000000000	0.0000000000	0.0000000000	-70.0827403736	1.0000000000	731.3744353113	1.0000000000	0.0000000000	0.0000000000
0.2000000000	0.0000000000	1.0000000000	0.0000000000	1.0000000000	0.0000000000	0.0000000000	-64.8791600841	1.0000000000	710.6753186363	1.0000000000	0.0000000000	0.0000000000
0.2100000000	0.7669231480	1.0000000000	0.1994545916	1.0000000000	0.0000000000	0.0000000000	-60.4109515549	1.0000000000	688.3670323255	1.0000000000	0.0000000000	0.0000000000
0.2200000000	1.0794439986	1.0000000000	0.4750923817	1.0000000000	0.0000000000	0.0000000000	-55.8233247273	1.0000000000	665.4501458475	1.0000000000	0.0000000000	0.0000000000
0.2300000000	1.0576286980	1.0000000000	0.3351617240	1.0000000000	0.0000000000	0.0000000000	-51.5125512308	1.0000000000	642.7260498483	1.0000000000	0.0000000000	0.0000000000
0.2400000000	0.2925357756	1.0000000000	0.1256638223	1.0000000000	0.0000000000	0.0000000000	-47.9658465564	1.0000000000	621.1555641467	1.0000000000	0.0000000000	0.0000000000
0.2500000000	0.3230842822	1.0000000000	0.1616560389	1.0000000000	0.0000000000	0.0000000000	-44.3171742614	1.0000000000	602.2930029431	1.0000000000	0.0000000000	0.0000000000
0.2600000000	0.7547013545	1.0000000000	0.2423223538	1.0000000000	0.0000000000	0.0000000000	-40.2494832501	1.0000000000	587.3353642510	1.0000000000	0.0000000000	0.0000000000
0.2700000000	0.3596337950	1.0000000000	0.1580992834	1.0000000000	0.0000000000	0.0000000000	-36.3597054184	1.0000000000	576.1495690938	1.0000000000	0.0000000000	0.0000000000
